<svg width="215" height="201" viewBox="0 0 215 201" fill="none" xmlns="http://www.w3.org/2000/svg">
<path fill-rule="evenodd" clip-rule="evenodd" d="M104.022 199.978C95.3479 197.253 68.2907 177.268 48.3538 138.466C36.4434 115.367 26.8634 85.5196 25.1804 48.6646C25.0509 46.718 26.6044 45.031 28.5464 44.9012C36.7024 44.3821 44.9878 43.344 53.0144 41.7867C52.8849 37.8936 51.9787 33.6111 55.733 32.8325C71.9156 29.3287 91.2052 22.7103 102.598 11.4202C104.022 9.99276 106.223 10.1225 107.517 11.4202C118.91 22.5806 138.199 29.1989 154.382 32.8325C158.007 33.6111 157.101 37.8936 156.971 41.7867C164.998 43.344 173.413 44.5119 181.439 44.9012C183.381 45.031 184.934 46.718 184.805 48.6646C182.993 85.5196 173.542 115.367 161.632 138.466C141.565 177.398 114.249 197.512 105.964 199.978C105.316 200.237 104.669 200.237 104.022 199.978Z" fill="#04764E"/>
<path fill-rule="evenodd" clip-rule="evenodd" d="M105.058 196.604C92.5004 192.97 33.337 145.344 28.8059 48.535C40.8457 47.8861 53.7918 45.8098 65.961 42.4358H144.285C156.454 45.8098 169.4 47.7564 181.44 48.535C176.779 145.344 117.616 192.97 105.058 196.604Z" fill="white"/>
<path fill-rule="evenodd" clip-rule="evenodd" d="M105.058 188.169C95.2191 184.665 48.7428 139.245 45.6357 46.8478C52.4971 45.8096 59.3585 44.3821 65.961 42.5653H144.285C150.887 44.3821 157.748 45.8096 164.61 46.8478C161.373 139.245 114.897 184.665 105.058 188.169Z" fill="#04764E"/>
<path fill-rule="evenodd" clip-rule="evenodd" d="M105.058 181.421C81.8845 164.94 61.9476 99.9243 58.8405 75.9167C57.5459 66.1838 56.7692 47.6265 56.5103 36.4662C75.9293 32.1838 94.1832 24.9166 105.058 14.1456C115.933 24.9166 134.316 32.1838 153.606 36.4662C153.347 47.6265 152.57 66.1838 151.275 75.9167C148.168 99.9243 128.62 164.55 105.058 181.421Z" fill="white"/>
<path fill-rule="evenodd" clip-rule="evenodd" d="M105.058 148.459L108.036 155.207L115.286 155.985L109.848 160.787L111.402 167.924L105.058 164.291L98.7146 167.924L100.268 160.787L94.8308 155.985L102.081 155.207L105.058 148.459Z" fill="#04764E"/>
<path fill-rule="evenodd" clip-rule="evenodd" d="M105.058 143.009C130.562 143.009 151.405 122.116 151.405 96.5506C151.405 70.9857 130.562 50.0925 105.058 50.0925C79.5543 50.0925 58.7112 70.9857 58.7112 96.5506C58.7112 122.116 79.5543 143.009 105.058 143.009Z" fill="white"/>
<path fill-rule="evenodd" clip-rule="evenodd" d="M105.058 135.871C130.562 135.871 151.405 114.978 151.405 89.4132C151.405 63.8483 130.562 42.9551 105.058 42.9551C79.5543 42.9551 58.7112 63.8483 58.7112 89.4132C58.7112 114.978 79.5543 135.871 105.058 135.871Z" fill="#D0D0D0"/>
<path fill-rule="evenodd" clip-rule="evenodd" d="M105.058 127.436C130.044 127.436 150.498 106.932 150.498 81.8862C150.498 56.8404 130.044 36.3365 105.058 36.3365C80.0719 36.3365 59.6172 56.8404 59.6172 81.8862C59.6172 106.932 80.0719 127.436 105.058 127.436Z" fill="white"/>
<path fill-rule="evenodd" clip-rule="evenodd" d="M132.633 45.68C143.508 53.9853 150.369 67.0922 150.369 81.8861C150.369 107.062 130.044 127.436 104.928 127.436C89.652 127.436 76.0587 119.779 67.7732 108.1C75.4114 113.94 84.9914 117.443 95.3483 117.443C120.464 117.443 140.789 97.0694 140.789 71.8938C141.048 62.1609 137.941 53.0769 132.633 45.68Z" fill="#DADADA"/>
<path fill-rule="evenodd" clip-rule="evenodd" d="M144.284 57.0999C141.177 52.1686 137.164 47.8861 132.504 44.5121C130.95 43.3442 129.267 42.306 127.584 41.3976C122.924 38.8022 117.745 36.9854 112.178 36.077C109.848 35.6877 107.518 35.5579 105.058 35.5579C103.375 35.5579 101.821 35.6877 100.268 35.8174C97.6788 36.077 95.0895 36.5961 92.6298 37.2449C91.9825 37.3747 91.3352 37.6342 90.6879 37.8938C84.6033 39.8403 79.1659 43.0846 74.5053 47.1075C70.6215 50.4816 67.385 54.5045 64.7958 59.0465C60.912 65.7946 58.7112 73.5808 58.7112 81.8862C58.7112 90.1915 60.912 97.9778 64.7958 104.726C67.385 109.268 70.6215 113.291 74.5053 116.665C79.1659 120.818 84.6033 123.932 90.6879 125.879C91.3352 126.138 91.9825 126.268 92.6298 126.527C95.0895 127.176 97.6788 127.695 100.268 127.955C101.821 128.085 103.504 128.214 105.058 128.214C107.518 128.214 109.848 128.085 112.178 127.695C117.745 126.787 122.924 124.97 127.584 122.375C129.267 121.466 130.95 120.298 132.504 119.26C137.164 115.886 141.177 111.474 144.284 106.672C148.816 99.5351 151.405 90.9702 151.405 81.8862C151.405 72.8022 148.816 64.2373 144.284 57.0999ZM127.584 44.3823C129.267 45.4205 130.95 46.5884 132.504 47.8862C133.669 48.7945 134.834 49.8327 135.87 51.0007C136.776 51.909 137.811 52.9472 138.588 53.9854C138.459 53.9854 138.329 53.8556 138.2 53.8556C136.387 51.6495 134.445 49.8327 132.504 48.2755C131.856 47.7564 131.209 47.2373 130.432 46.7182C129.526 46.0694 128.49 45.5503 127.584 45.0312C125.642 43.993 123.441 43.2144 121.241 42.5655C120.464 41.7869 119.687 41.0083 118.651 40.3594C121.888 41.3976 124.865 42.6953 127.584 44.3823ZM112.178 45.2907C114.12 43.993 117.357 43.0846 120.464 42.9548C122.924 43.6037 125.383 44.5121 127.584 45.68C128.361 46.1991 129.267 46.5884 130.044 47.2373C130.821 47.7564 131.727 48.4052 132.504 49.0541C134.834 50.8709 136.905 53.2068 139.106 55.932C140.919 59.4358 141.436 63.7182 140.401 66.703C137.811 67.4816 135.093 68.1305 132.504 68.7793C131.08 69.1686 129.785 69.4282 128.361 69.8175C128.102 69.5579 127.843 69.2984 127.584 69.0389C123.83 65.1457 119.04 62.161 114.12 60.3442C113.861 57.619 113.473 55.0236 112.955 52.4281C112.696 51.5197 112.567 50.6113 112.178 49.7029C111.79 48.535 111.402 47.3671 111.013 46.3289C111.272 45.9396 111.66 45.68 112.178 45.2907ZM100.268 43.3442C104.152 43.7335 107.647 44.6419 110.366 46.3289C111.143 48.1457 111.79 50.222 112.308 52.4281V52.5579C112.826 55.0236 113.214 57.7488 113.473 60.3442C113.085 60.474 112.696 60.7335 112.308 60.993C108.036 63.3289 103.246 67.0923 100.268 70.2068C100.139 70.3366 100.009 70.4663 99.8796 70.7259C97.5493 70.077 95.0895 69.4282 92.7593 69.0389C92.2414 68.9091 91.7236 68.9091 91.3352 68.7793L90.8174 68.6495C88.0987 68.1305 85.38 67.8709 82.5319 67.6114C80.7195 63.5885 80.0721 59.306 80.0721 54.8938C81.7551 52.4281 83.956 50.222 86.4157 48.4052C87.8398 47.3671 89.2638 46.3289 90.9468 45.4205C91.5941 45.0312 92.2414 44.7716 92.8887 44.3823C93.536 43.993 94.3128 43.7335 95.0896 43.4739C96.6431 43.0846 98.4555 43.2144 100.268 43.3442ZM105.317 87.8557C103.763 90.4511 102.08 92.9167 100.268 95.3824L100.139 95.5122C98.3261 97.9778 96.3842 100.314 94.4423 102.65C93.7949 102.65 93.1476 102.65 92.6298 102.65C91.9825 102.65 91.3352 102.65 90.6879 102.52C86.1568 102.26 81.7551 101.092 77.7419 99.4053C76.4472 97.1992 75.4116 94.9931 74.5053 92.6572C74.2464 92.0083 73.9875 91.3595 73.858 90.7106C72.9518 87.8557 72.3045 85.0007 71.7867 82.016C72.5634 80.0694 73.4697 78.1228 74.5053 76.4358C76.7062 72.8022 79.2954 70.077 82.1435 68.0007C84.9916 68.2602 87.8398 68.5198 90.5584 69.0389L90.9468 69.1686C91.4647 69.2984 91.9825 69.2984 92.5003 69.4282C94.7012 69.8175 97.0315 70.4663 99.2323 70.9854C99.4912 71.8938 99.8796 72.8022 100.139 73.7106C101.821 78.5121 103.504 83.1839 105.317 87.8557ZM74.2464 50.8709L74.5053 50.6114C79.0365 46.1991 84.4738 42.6953 90.6879 40.4892C91.3352 40.2297 91.9825 40.0999 92.6298 39.8403C93.4066 39.5808 94.1833 39.451 94.9601 39.1915C94.0539 40.0999 93.7949 41.3976 93.7949 42.6953C93.4066 42.8251 93.0182 42.9548 92.6298 43.2144C91.9825 43.4739 91.3352 43.8632 90.6879 44.2526C88.8754 45.161 87.3219 46.3289 85.7684 47.4968C83.3087 49.4434 81.1078 51.7793 79.2954 54.2449C77.6124 54.6342 75.9294 55.0236 74.5053 55.6724C72.1751 56.5808 70.1037 58.0083 68.5502 59.6953C68.5502 59.306 68.4207 59.0465 68.4207 58.6572C68.4207 58.5274 68.4207 58.3976 68.4207 58.1381C70.1037 55.5426 72.0456 53.077 74.2464 50.8709ZM64.7958 65.0159C65.702 62.9396 66.6083 60.993 67.7734 59.0465C67.7734 59.4358 67.9029 59.9549 68.0323 60.3442L67.9029 60.6037C66.6083 62.2908 65.5726 64.4969 64.7958 66.8327C63.7601 69.9473 63.2423 73.3213 63.5012 76.306C62.8539 77.0847 62.2066 77.8633 61.5593 78.9014C61.8182 74.0999 62.9834 69.4282 64.7958 65.0159ZM71.5278 109.527C71.3983 109.527 71.3983 109.398 71.2688 109.398C68.6796 106.153 66.4788 102.52 64.7958 98.6267C62.595 93.4358 61.4299 87.8557 61.4299 81.8862C61.4299 81.4969 61.4299 81.1076 61.4299 80.7183C61.5593 80.3289 61.8182 79.9396 61.9477 79.6801C62.4655 78.7717 62.9834 77.9931 63.6307 77.3442C64.0191 77.7335 64.278 78.1228 64.6664 78.3824C66.4788 79.9396 68.5502 81.1076 70.8805 82.016C71.2688 85.1305 72.0456 88.245 72.9518 91.0999C73.3402 92.3977 73.8581 93.5656 74.3759 94.7335C75.1527 96.6801 76.0589 98.4969 77.0946 100.314C75.7999 103.688 74.8937 107.062 75.1526 110.695C74.8937 110.695 74.6348 110.695 74.3759 110.566C73.4697 110.306 72.434 110.047 71.5278 109.527ZM90.6879 123.153C84.6033 120.947 79.0365 117.573 74.5053 113.031L74.2464 112.772C73.5991 112.123 72.9518 111.344 72.3045 110.695C73.0813 110.955 73.7286 111.214 74.5053 111.344C74.7643 111.344 75.1527 111.474 75.4116 111.474C77.0946 115.108 84.7327 120.298 89.7817 121.207C90.0406 121.856 90.2995 122.505 90.6879 123.153ZM123.7 121.466C120.075 123.153 116.321 124.321 112.308 125.1C109.978 125.489 107.647 125.749 105.187 125.749C103.504 125.749 101.951 125.619 100.397 125.489C97.8082 125.23 95.219 124.711 92.7593 123.932C92.5003 123.932 92.3709 123.802 92.112 123.672C91.4647 123.153 91.0763 122.375 90.8174 121.466V121.337C91.4647 121.337 92.112 121.207 92.7593 121.077C95.6074 120.558 98.0671 119.52 100.397 117.833C100.915 117.443 101.433 117.054 101.821 116.665C103.893 117.573 106.87 117.963 110.107 117.833C110.884 117.833 111.66 117.833 112.308 117.703C115.156 117.573 118.004 117.054 120.593 116.276C121.758 117.703 122.924 119.131 124.607 119.909C124.218 120.428 123.959 120.947 123.7 121.466ZM127.584 119.26C126.678 119.779 125.772 120.298 124.736 120.818C124.865 120.558 124.995 120.169 125.124 119.909C126.031 119.779 126.807 119.52 127.584 119.26C127.714 119.131 127.843 119.13 127.843 119.001C127.843 119.13 127.714 119.26 127.584 119.26ZM127.584 108.619C125.642 111.474 123.441 113.81 121.499 115.108C118.651 116.016 115.415 116.665 112.178 116.924C111.402 116.924 110.625 117.054 109.977 117.054C106.741 117.054 103.893 116.665 101.821 115.886C101.304 115.237 100.786 114.459 100.268 113.81C98.0671 110.695 96.2547 107.192 95.0896 103.298C96.902 101.222 98.585 99.016 100.268 96.9396C100.527 96.6801 100.786 96.2908 100.915 96.0313C102.728 93.5656 104.411 91.2297 105.835 88.6343C107.906 88.7641 110.107 88.8938 112.178 88.8938C115.933 88.8938 119.687 88.7641 123.441 88.3747C124.995 90.1915 126.419 92.1381 127.584 94.3442C127.714 94.6038 127.843 94.7335 127.972 94.9931C129.138 97.1992 130.173 99.5351 131.08 102.001C130.303 104.207 129.008 106.543 127.584 108.619ZM132.504 101.871C132.245 101.871 131.986 101.871 131.856 101.871C130.95 99.1458 129.914 96.8099 128.62 94.474C128.361 93.9549 127.972 93.3061 127.714 92.787C126.678 91.1 125.513 89.4129 124.218 87.9854C125.772 84.6114 126.937 81.3671 127.714 77.9931C128.231 75.5274 128.62 73.0618 128.879 70.5961C130.173 70.3366 131.468 69.9473 132.633 69.6877C135.352 69.0389 137.941 68.39 140.66 67.6114C141.825 68.39 143.249 70.077 144.414 72.1534C145.45 74.0999 146.485 76.4358 147.133 79.161C147.392 83.1839 147.003 86.8175 146.097 90.3213C145.709 91.8786 145.061 93.4358 144.414 94.9931C143.767 96.4205 142.99 97.848 142.213 99.1458C138.847 100.703 135.611 101.741 132.504 101.871ZM141.436 105.894C142.343 103.558 142.731 101.352 142.602 99.2755C143.249 98.3671 143.767 97.4587 144.284 96.4206C145.32 94.474 146.097 92.3977 146.615 90.3213C147.521 87.077 147.909 83.703 147.78 80.0694C148.039 79.8099 148.427 79.2908 148.686 78.7717C148.816 79.8099 148.816 80.848 148.816 81.8862C148.816 88.7641 147.262 95.2526 144.414 101.092C143.378 102.779 142.472 104.337 141.436 105.894Z" fill="black"/>
<path d="M10 120.822C15.525 120.822 20 125.307 20 130.846C20 136.384 15.525 140.87 10 140.87C4.48 140.87 0 136.384 0 130.846C0 125.307 4.48 120.822 10 120.822Z" fill="#04764E"/>
<path d="M202.5 60.6774C209.405 60.6774 215 66.2858 215 73.2074C215 80.129 209.405 85.7374 202.5 85.7374C195.595 85.7374 190 80.129 190 73.2074C190 66.2858 195.595 60.6774 202.5 60.6774Z" fill="#04764E"/>
<path d="M205 120.822C202.24 120.822 200 123.067 200 125.834C200 128.6 202.24 130.846 205 130.846C207.76 130.846 210 128.6 210 125.834C210 123.067 207.76 120.822 205 120.822Z" fill="#04764E"/>
<path d="M190 170.941C187.24 170.941 185 173.187 185 175.954C185 178.72 187.24 180.966 190 180.966C192.76 180.966 195 178.72 195 175.954C195 173.187 192.76 170.941 190 170.941Z" fill="#04764E"/>
<path d="M149.562 5.012C149.562 2.24538 147.322 0 144.562 0C141.802 0 139.562 2.24538 139.562 5.012C139.562 7.77863 141.802 10.024 144.562 10.024C147.322 10.024 149.562 7.77863 149.562 5.012Z" fill="#04764E"/>
<path d="M25 160.918C22.24 160.918 20 163.163 20 165.93C20 168.696 22.24 170.942 25 170.942C27.76 170.942 30 168.696 30 165.93C30 163.163 27.76 160.918 25 160.918Z" fill="#04764E"/>
<path d="M61.864 5.012C61.864 2.24538 59.624 0 56.864 0C54.104 0 51.864 2.24538 51.864 5.012C51.864 7.77863 54.104 10.024 56.864 10.024C59.624 10.024 61.864 7.77863 61.864 5.012Z" fill="#04764E"/>
<path d="M10 55.6655C7.24 55.6655 5 57.9108 5 60.6775C5 63.4441 7.24 65.6895 10 65.6895C12.76 65.6895 15 63.4441 15 60.6775C15 57.9108 12.76 55.6655 10 55.6655Z" fill="#04764E"/>
</svg>
